<?xml version="1.0" ?><svg data-name="Layer 1" id="Layer_1" viewBox="0 0 128 128" xmlns="http://www.w3.org/2000/svg"><defs><style>.cls-1{fill:#0177b5;}.cls-2{fill:#fff;}</style></defs><title/><rect class="cls-1" height="128" rx="24" ry="24" width="128"/><path class="cls-2" d="M92,32H36a4,4,0,0,0-4,4V92a4,4,0,0,0,4,4H92a4,4,0,0,0,4-4V36A4,4,0,0,0,92,32ZM52,86H42V56H52ZM47,52a6,6,0,1,1,6-6A6,6,0,0,1,47,52ZM86,86H76V66c0-1.66-2.24-3-5-3-4,0-5,5.34-5,7V86H56V56H66v7c0-5,4.48-7,10-7A10,10,0,0,1,86,66Z"/></svg>