<svg xmlns="http://www.w3.org/2000/svg" width="319" height="71.029" viewBox="0 0 319 71.029">
  <g id="Grupo_61" data-name="Grupo 61" transform="translate(-308 -31.526)">
    <g id="Grupo_57" data-name="Grupo 57" transform="translate(308 32.543)">
      <g id="Frame_6" data-name="Frame 6" transform="translate(0 7.917)">
        <path id="Caminho_468" data-name="Caminho 468" d="M112.882,75.171a13.58,13.58,0,0,1-1.057,5.287,18.55,18.55,0,0,1-2.819,4.742,23.526,23.526,0,0,1-4.1,4.005,29.051,29.051,0,0,1-4.967,3.076,28.409,28.409,0,0,1-5.351,1.987,20.953,20.953,0,0,1-5.255.7h-.545a2.1,2.1,0,0,1-.513-.064l.353-1.762a28.125,28.125,0,0,0,4.2-1.057,27.144,27.144,0,0,0,4.1-1.794,24.008,24.008,0,0,0,3.652-2.5,17.927,17.927,0,0,0,2.948-3.172,14.968,14.968,0,0,0,1.954-3.813,13.257,13.257,0,0,0,.737-4.454,11.634,11.634,0,0,0-.737-4.2,9.892,9.892,0,0,0-2.082-3.332,8.953,8.953,0,0,0-3.172-2.179,10.337,10.337,0,0,0-4.133-.8,22.839,22.839,0,0,0-4.87.545,30.223,30.223,0,0,0-4.9,1.538,29.834,29.834,0,0,0-4.71,2.435,28.815,28.815,0,0,0-4.133,3.14l-.993-1.089a33.907,33.907,0,0,1,4.966-4.069,40.135,40.135,0,0,1,5.9-3.332,36.961,36.961,0,0,1,6.216-2.275,23.955,23.955,0,0,1,6.088-.833,13.456,13.456,0,0,1,5.191.993,12.187,12.187,0,0,1,4.2,2.723,12.737,12.737,0,0,1,2.819,4.2A13.652,13.652,0,0,1,112.882,75.171ZM86.833,106.987l-6.6,2.435V73.5l6.6-2.339Zm40.628-7.4a9.457,9.457,0,0,1-2.756,6.728,9,9,0,0,1-3.012,2.019,9.466,9.466,0,0,1-3.749.737,12.33,12.33,0,0,1-1.891-.16,13.451,13.451,0,0,1-1.986-.481,11.442,11.442,0,0,1-1.891-.8,5.206,5.206,0,0,1-1.442-1.153l3.781-4.934q.385.608.929,1.346a12.124,12.124,0,0,0,1.25,1.314,8.337,8.337,0,0,0,1.474,1.025,3.677,3.677,0,0,0,1.6.384,4.61,4.61,0,0,0,1.73-.32,4.332,4.332,0,0,0,1.442-.9,4.6,4.6,0,0,0,.961-1.41,4.333,4.333,0,0,0,.352-1.762,3.533,3.533,0,0,0-.9-2.339,13.709,13.709,0,0,0-2.083-2.082q-1.185-1.025-2.5-2.083a10.25,10.25,0,0,1-2.082-2.371l-3.332,4.87-1.249-.929,3.845-5.319a10.183,10.183,0,0,1-.7-1.954A8.449,8.449,0,0,1,115,86.962a6.687,6.687,0,0,1,1.121-3.589,4.806,4.806,0,0,1,1.314-1.314,3.171,3.171,0,0,1,1.826-.545,2.393,2.393,0,0,1,1.666.608,2.125,2.125,0,0,1,.7,1.7,3.629,3.629,0,0,1-.192,1.153,8.758,8.758,0,0,1-.481,1.153,11.584,11.584,0,0,1-.641,1.121q-.353.513-.673.962a11.085,11.085,0,0,0,1.666,1.89q.9.8,1.762,1.506t1.666,1.41a7.583,7.583,0,0,1,1.378,1.6,7.477,7.477,0,0,1,.962,2.083A9.43,9.43,0,0,1,127.461,99.586ZM120.188,84.4a.768.768,0,0,0-.32-.673,1.066,1.066,0,0,0-.673-.224.817.817,0,0,0-.769.385,1.459,1.459,0,0,0-.224.8,4.131,4.131,0,0,0,.192,1.25,7.17,7.17,0,0,0,.545,1.153q.129-.224.321-.577a8.238,8.238,0,0,0,.416-.737,5.862,5.862,0,0,0,.352-.769A1.715,1.715,0,0,0,120.188,84.4ZM153.7,105.8a17.449,17.449,0,0,1-.577,4.486,18.87,18.87,0,0,1-1.6,4.133,17.773,17.773,0,0,1-2.371,3.557,16.031,16.031,0,0,1-3.012,2.787,13.082,13.082,0,0,1-3.4,1.826,10.248,10.248,0,0,1-3.621.673,7,7,0,0,1-2.6-.481,9.946,9.946,0,0,1-2.307-1.218l3.588-4.55q.481.384,1.058.8a10.666,10.666,0,0,0,1.25.737,6.326,6.326,0,0,0,1.314.545,4.531,4.531,0,0,0,1.378.224,2.984,2.984,0,0,0,2.051-.737,5.554,5.554,0,0,0,1.41-1.89,12.217,12.217,0,0,0,.865-2.628,22.46,22.46,0,0,0,.449-2.884q.16-1.442.192-2.756.032-1.282.032-2.115V93.4q-.256,1.122-.673,2.724-.416,1.57-1.057,3.332-.609,1.731-1.41,3.46a17.936,17.936,0,0,1-1.826,3.076,9.32,9.32,0,0,1-2.243,2.243,4.613,4.613,0,0,1-2.659.833,3.423,3.423,0,0,1-2.243-.641,4.048,4.048,0,0,1-1.09-1.666,8.219,8.219,0,0,1-.352-2.243q-.032-1.217-.032-2.339V88.34a2.184,2.184,0,0,0-.321-1.121,1.059,1.059,0,0,0-.993-.576,2.155,2.155,0,0,0-1.474.608,6.239,6.239,0,0,0-1.025,1.154l-.865-.962A8.374,8.374,0,0,1,130.5,85.9a8.032,8.032,0,0,1,1.346-1.346,6.451,6.451,0,0,1,1.634-.9,5.045,5.045,0,0,1,1.858-.352,4.255,4.255,0,0,1,3.589,1.41,5.767,5.767,0,0,1,1.121,3.748v13.713a2.794,2.794,0,0,0,.129.577,1.593,1.593,0,0,0,.288.48.693.693,0,0,0,.513.192,1.768,1.768,0,0,0,1.25-.7,11.214,11.214,0,0,0,1.218-1.634,15.714,15.714,0,0,0,.993-1.858q.417-.929.609-1.378a24.8,24.8,0,0,0,1.025-3.012q.448-1.634.769-3.332.352-1.73.576-3.4.256-1.7.385-3.236l5.9-2.051Z" transform="translate(-73.985 -61.169)" fill="#fff"/>
        <path id="Caminho_469" data-name="Caminho 469" d="M314.076,106.171l-6.632,2.371v-18.2H290.782v15.828l-6.633,2.371v-18.2h-5.126l2.371-4.646h2.755V62.66l6.633-2.371V85.7h16.661V62.66l6.632-2.371Zm29.574-4.87a22.661,22.661,0,0,1-2.467,2.691,16.006,16.006,0,0,1-2.884,2.179,15.029,15.029,0,0,1-3.268,1.474,11.88,11.88,0,0,1-3.589.545,11.155,11.155,0,0,1-4.358-.833,10.345,10.345,0,0,1-5.671-5.863,11.956,11.956,0,0,1-.8-4.39,13.391,13.391,0,0,1,.545-3.781,14.6,14.6,0,0,1,1.538-3.492,16.739,16.739,0,0,1,2.339-3.012,15.359,15.359,0,0,1,3.012-2.4,14.749,14.749,0,0,1,3.46-1.538,12.387,12.387,0,0,1,3.749-.576,9.664,9.664,0,0,1,2.531.32,6.07,6.07,0,0,1,2.147,1.025,4.763,4.763,0,0,1,1.474,1.762,5.465,5.465,0,0,1,.545,2.531,5.352,5.352,0,0,1-.737,2.563,13.79,13.79,0,0,1-1.89,2.691,27.941,27.941,0,0,1-2.628,2.659q-1.474,1.282-3.012,2.4-1.506,1.09-2.916,1.923a21.5,21.5,0,0,1-2.467,1.282,10.155,10.155,0,0,0,2.755,2.4,6.44,6.44,0,0,0,3.332.929,6.674,6.674,0,0,0,2.275-.417,12.659,12.659,0,0,0,2.211-1.121,17.8,17.8,0,0,0,2.051-1.474q.993-.8,1.762-1.506Zm-7.722-12.176a3.924,3.924,0,0,0-.256-1.409A3.1,3.1,0,0,0,335,86.562a3.134,3.134,0,0,0-1.089-.8,2.983,2.983,0,0,0-1.41-.321,4.042,4.042,0,0,0-2.659,1.025,9.572,9.572,0,0,0-2.115,2.467,14.772,14.772,0,0,0-1.378,3.14,10.391,10.391,0,0,0-.481,2.884,8.685,8.685,0,0,0,.385,2.5,11.955,11.955,0,0,0,1.057,2.467,18.263,18.263,0,0,0,2.788-1.954,24.033,24.033,0,0,0,2.787-2.724,17.106,17.106,0,0,0,2.179-3.108A6.375,6.375,0,0,0,335.927,89.125Zm37.423,14.611a7.918,7.918,0,0,1-.961,1.57,7.143,7.143,0,0,1-1.346,1.314,6.476,6.476,0,0,1-1.634.929,5.215,5.215,0,0,1-1.826.32,4.445,4.445,0,0,1-3.652-1.378,6.082,6.082,0,0,1-1.09-3.813V102.1a23.626,23.626,0,0,1-1.314,2.179,10.282,10.282,0,0,1-1.634,1.954,7.79,7.79,0,0,1-2.019,1.41,5.642,5.642,0,0,1-2.5.545,8.133,8.133,0,0,1-3.685-.8A8.04,8.04,0,0,1,349,105.242a9.47,9.47,0,0,1-1.634-3.2,13.5,13.5,0,0,1-.545-3.877,16.957,16.957,0,0,1,3.717-10.509,14.407,14.407,0,0,1,4.261-3.524,11.288,11.288,0,0,1,5.543-1.378,13.418,13.418,0,0,1,2.435.224,9.384,9.384,0,0,1,2.307.737,7.36,7.36,0,0,1,2.018,1.281,6.219,6.219,0,0,1,1.506,1.954l-4.774,2.019a7.6,7.6,0,0,0-.9-1.153,5.32,5.32,0,0,0-1.09-.993,5.406,5.406,0,0,0-1.249-.673,3.927,3.927,0,0,0-1.41-.256,4.716,4.716,0,0,0-2.98,1.025A9.775,9.775,0,0,0,354,89.446a13.314,13.314,0,0,0-1.378,3.2,11.4,11.4,0,0,0-.48,3.076,19.306,19.306,0,0,0,.224,2.756,11.619,11.619,0,0,0,.865,2.851,7.058,7.058,0,0,0,1.6,2.275,3.515,3.515,0,0,0,2.5.929,3.948,3.948,0,0,0,2.051-.513,5.326,5.326,0,0,0,1.474-1.378,8,8,0,0,0,.993-1.954,12.333,12.333,0,0,0,.609-2.275,17.028,17.028,0,0,0,.288-2.275q.1-1.154.1-2.051V91.881l5.831-2.051v13.009a2.3,2.3,0,0,0,.32,1.186,1.088,1.088,0,0,0,.993.513,2.1,2.1,0,0,0,1.442-.577,5.989,5.989,0,0,0,1.057-1.218Zm14.675.064a7.192,7.192,0,0,1-.993,1.57,7.658,7.658,0,0,1-1.314,1.314,5.791,5.791,0,0,1-1.634.9,4.709,4.709,0,0,1-1.794.353,4.5,4.5,0,0,1-3.653-1.378,5.956,5.956,0,0,1-1.121-3.813V63.653l5.9-2.051v41.3a2.493,2.493,0,0,0,.288,1.185,1.075,1.075,0,0,0,1.025.513,2.03,2.03,0,0,0,1.378-.576,6.5,6.5,0,0,0,1.057-1.186Zm15.636,0a7.143,7.143,0,0,1-1.7,2.4,7.051,7.051,0,0,1-1.89,1.218,6.5,6.5,0,0,1-2.179.513,5.451,5.451,0,0,1-2.371-.449,3.948,3.948,0,0,1-1.442-1.185,4.909,4.909,0,0,1-.737-1.666,9.319,9.319,0,0,1-.192-1.891V85.953h-3.4l1.378-3.2h2.019V71.407l5.863-2.051V82.749H405.1l-1.314,3.2h-4.774V102.9a1.922,1.922,0,0,0,.352,1.218,1.189,1.189,0,0,0,.9.48,2.368,2.368,0,0,0,1.218-.416,4.655,4.655,0,0,0,1.314-1.346Zm30.022,0a6.335,6.335,0,0,1-.961,1.57,7.129,7.129,0,0,1-1.346,1.314,5.79,5.79,0,0,1-1.634.9,4.789,4.789,0,0,1-1.826.353,4.5,4.5,0,0,1-3.653-1.378,5.956,5.956,0,0,1-1.121-3.813V89.7a4.919,4.919,0,0,0-.032-.545,1.641,1.641,0,0,0-.16-.577.956.956,0,0,0-.288-.448.691.691,0,0,0-.513-.192,2.247,2.247,0,0,0-1.57.7,6.521,6.521,0,0,0-1.346,1.858,21.051,21.051,0,0,0-1.153,2.659q-.513,1.506-.929,3.14t-.737,3.268q-.288,1.634-.513,3.076t-.352,2.531q-.1,1.09-.1,1.634l-5.9,2.051V63.653l5.9-2.051V96.271a24.822,24.822,0,0,1,.609-2.628,30.187,30.187,0,0,1,2.435-6.088,14.669,14.669,0,0,1,1.858-2.659,9.112,9.112,0,0,1,2.243-1.858,5.208,5.208,0,0,1,2.691-.737,3.312,3.312,0,0,1,2.243.673,3.454,3.454,0,0,1,1.089,1.666,7.141,7.141,0,0,1,.385,2.211q.032,1.217.032,2.339V102.9a2.5,2.5,0,0,0,.288,1.185,1.119,1.119,0,0,0,1.025.513,2.1,2.1,0,0,0,1.442-.576,8.642,8.642,0,0,0,1.058-1.186Z" transform="translate(-184.229 -60.289)" fill="#fff"/>
        <rect id="Retângulo_216" data-name="Retângulo 216" width="234" height="3" transform="translate(85 54.54)" fill="#fff"/>
        <rect id="Retângulo_217" data-name="Retângulo 217" width="56" height="3" transform="translate(0 54.54)" fill="#fff"/>
      </g>
      <g id="psi" transform="translate(259.998 0)">
        <g id="Grupo_55" data-name="Grupo 55">
          <path id="Caminho_470" data-name="Caminho 470" d="M79.923,0a6.987,6.987,0,0,0-6.98,6.98v8.87a16.11,16.11,0,0,1-14.431,16V3.313h1.005a1.657,1.657,0,1,0,0-3.313H54.194a1.657,1.657,0,1,0,0,3.313H55.2V31.855a16.11,16.11,0,0,1-14.43-16V6.983A6.988,6.988,0,0,0,33.79,0a1.657,1.657,0,1,0,0,3.313,3.671,3.671,0,0,1,3.667,3.667v8.87A19.426,19.426,0,0,0,55.2,35.181V53.231H51.533a1.657,1.657,0,1,0,0,3.313H62.179a1.657,1.657,0,0,0,0-3.313H58.513V35.181A19.426,19.426,0,0,0,76.256,15.853V6.983a3.671,3.671,0,0,1,3.667-3.667,1.657,1.657,0,0,0,0-3.313Z" transform="translate(-32.133)" fill="#fff"/>
        </g>
      </g>
      <g id="Frame_6-2" data-name="Frame 6" transform="translate(0 7.917)">
        <path id="Caminho_468-2" data-name="Caminho 468" d="M112.882,75.171a13.58,13.58,0,0,1-1.057,5.287,18.55,18.55,0,0,1-2.819,4.742,23.526,23.526,0,0,1-4.1,4.005,29.051,29.051,0,0,1-4.967,3.076,28.409,28.409,0,0,1-5.351,1.987,20.953,20.953,0,0,1-5.255.7h-.545a2.1,2.1,0,0,1-.513-.064l.353-1.762a28.125,28.125,0,0,0,4.2-1.057,27.144,27.144,0,0,0,4.1-1.794,24.008,24.008,0,0,0,3.652-2.5,17.927,17.927,0,0,0,2.948-3.172,14.968,14.968,0,0,0,1.954-3.813,13.257,13.257,0,0,0,.737-4.454,11.634,11.634,0,0,0-.737-4.2,9.892,9.892,0,0,0-2.082-3.332,8.953,8.953,0,0,0-3.172-2.179,10.337,10.337,0,0,0-4.133-.8,22.839,22.839,0,0,0-4.87.545,30.223,30.223,0,0,0-4.9,1.538,29.834,29.834,0,0,0-4.71,2.435,28.815,28.815,0,0,0-4.133,3.14l-.993-1.089a33.907,33.907,0,0,1,4.966-4.069,40.135,40.135,0,0,1,5.9-3.332,36.961,36.961,0,0,1,6.216-2.275,23.955,23.955,0,0,1,6.088-.833,13.456,13.456,0,0,1,5.191.993,12.187,12.187,0,0,1,4.2,2.723,12.737,12.737,0,0,1,2.819,4.2A13.652,13.652,0,0,1,112.882,75.171ZM86.833,106.987l-6.6,2.435V73.5l6.6-2.339Zm40.628-7.4a9.457,9.457,0,0,1-2.756,6.728,9,9,0,0,1-3.012,2.019,9.466,9.466,0,0,1-3.749.737,12.33,12.33,0,0,1-1.891-.16,13.451,13.451,0,0,1-1.986-.481,11.442,11.442,0,0,1-1.891-.8,5.206,5.206,0,0,1-1.442-1.153l3.781-4.934q.385.608.929,1.346a12.124,12.124,0,0,0,1.25,1.314,8.337,8.337,0,0,0,1.474,1.025,3.677,3.677,0,0,0,1.6.384,4.61,4.61,0,0,0,1.73-.32,4.332,4.332,0,0,0,1.442-.9,4.6,4.6,0,0,0,.961-1.41,4.333,4.333,0,0,0,.352-1.762,3.533,3.533,0,0,0-.9-2.339,13.709,13.709,0,0,0-2.083-2.082q-1.185-1.025-2.5-2.083a10.25,10.25,0,0,1-2.082-2.371l-3.332,4.87-1.249-.929,3.845-5.319a10.183,10.183,0,0,1-.7-1.954A8.449,8.449,0,0,1,115,86.962a6.687,6.687,0,0,1,1.121-3.589,4.806,4.806,0,0,1,1.314-1.314,3.171,3.171,0,0,1,1.826-.545,2.393,2.393,0,0,1,1.666.608,2.125,2.125,0,0,1,.7,1.7,3.629,3.629,0,0,1-.192,1.153,8.758,8.758,0,0,1-.481,1.153,11.584,11.584,0,0,1-.641,1.121q-.353.513-.673.962a11.085,11.085,0,0,0,1.666,1.89q.9.8,1.762,1.506t1.666,1.41a7.583,7.583,0,0,1,1.378,1.6,7.477,7.477,0,0,1,.962,2.083A9.43,9.43,0,0,1,127.461,99.586ZM120.188,84.4a.768.768,0,0,0-.32-.673,1.066,1.066,0,0,0-.673-.224.817.817,0,0,0-.769.385,1.459,1.459,0,0,0-.224.8,4.131,4.131,0,0,0,.192,1.25,7.17,7.17,0,0,0,.545,1.153q.129-.224.321-.577a8.238,8.238,0,0,0,.416-.737,5.862,5.862,0,0,0,.352-.769A1.715,1.715,0,0,0,120.188,84.4ZM153.7,105.8a17.449,17.449,0,0,1-.577,4.486,18.87,18.87,0,0,1-1.6,4.133,17.773,17.773,0,0,1-2.371,3.557,16.031,16.031,0,0,1-3.012,2.787,13.082,13.082,0,0,1-3.4,1.826,10.248,10.248,0,0,1-3.621.673,7,7,0,0,1-2.6-.481,9.946,9.946,0,0,1-2.307-1.218l3.588-4.55q.481.384,1.058.8a10.666,10.666,0,0,0,1.25.737,6.326,6.326,0,0,0,1.314.545,4.531,4.531,0,0,0,1.378.224,2.984,2.984,0,0,0,2.051-.737,5.554,5.554,0,0,0,1.41-1.89,12.217,12.217,0,0,0,.865-2.628,22.46,22.46,0,0,0,.449-2.884q.16-1.442.192-2.756.032-1.282.032-2.115V93.4q-.256,1.122-.673,2.724-.416,1.57-1.057,3.332-.609,1.731-1.41,3.46a17.936,17.936,0,0,1-1.826,3.076,9.32,9.32,0,0,1-2.243,2.243,4.613,4.613,0,0,1-2.659.833,3.423,3.423,0,0,1-2.243-.641,4.048,4.048,0,0,1-1.09-1.666,8.219,8.219,0,0,1-.352-2.243q-.032-1.217-.032-2.339V88.34a2.184,2.184,0,0,0-.321-1.121,1.059,1.059,0,0,0-.993-.576,2.155,2.155,0,0,0-1.474.608,6.239,6.239,0,0,0-1.025,1.154l-.865-.962A8.374,8.374,0,0,1,130.5,85.9a8.032,8.032,0,0,1,1.346-1.346,6.451,6.451,0,0,1,1.634-.9,5.045,5.045,0,0,1,1.858-.352,4.255,4.255,0,0,1,3.589,1.41,5.767,5.767,0,0,1,1.121,3.748v13.713a2.794,2.794,0,0,0,.129.577,1.593,1.593,0,0,0,.288.48.693.693,0,0,0,.513.192,1.768,1.768,0,0,0,1.25-.7,11.214,11.214,0,0,0,1.218-1.634,15.714,15.714,0,0,0,.993-1.858q.417-.929.609-1.378a24.8,24.8,0,0,0,1.025-3.012q.448-1.634.769-3.332.352-1.73.576-3.4.256-1.7.385-3.236l5.9-2.051Z" transform="translate(-73.985 -61.169)" fill="#fff"/>
        <path id="Caminho_469-2" data-name="Caminho 469" d="M314.076,106.171l-6.632,2.371v-18.2H290.782v15.828l-6.633,2.371v-18.2h-5.126l2.371-4.646h2.755V62.66l6.633-2.371V85.7h16.661V62.66l6.632-2.371Zm29.574-4.87a22.661,22.661,0,0,1-2.467,2.691,16.006,16.006,0,0,1-2.884,2.179,15.029,15.029,0,0,1-3.268,1.474,11.88,11.88,0,0,1-3.589.545,11.155,11.155,0,0,1-4.358-.833,10.345,10.345,0,0,1-5.671-5.863,11.956,11.956,0,0,1-.8-4.39,13.391,13.391,0,0,1,.545-3.781,14.6,14.6,0,0,1,1.538-3.492,16.739,16.739,0,0,1,2.339-3.012,15.359,15.359,0,0,1,3.012-2.4,14.749,14.749,0,0,1,3.46-1.538,12.387,12.387,0,0,1,3.749-.576,9.664,9.664,0,0,1,2.531.32,6.07,6.07,0,0,1,2.147,1.025,4.763,4.763,0,0,1,1.474,1.762,5.465,5.465,0,0,1,.545,2.531,5.352,5.352,0,0,1-.737,2.563,13.79,13.79,0,0,1-1.89,2.691,27.941,27.941,0,0,1-2.628,2.659q-1.474,1.282-3.012,2.4-1.506,1.09-2.916,1.923a21.5,21.5,0,0,1-2.467,1.282,10.155,10.155,0,0,0,2.755,2.4,6.44,6.44,0,0,0,3.332.929,6.674,6.674,0,0,0,2.275-.417,12.659,12.659,0,0,0,2.211-1.121,17.8,17.8,0,0,0,2.051-1.474q.993-.8,1.762-1.506Zm-7.722-12.176a3.924,3.924,0,0,0-.256-1.409A3.1,3.1,0,0,0,335,86.562a3.134,3.134,0,0,0-1.089-.8,2.983,2.983,0,0,0-1.41-.321,4.042,4.042,0,0,0-2.659,1.025,9.572,9.572,0,0,0-2.115,2.467,14.772,14.772,0,0,0-1.378,3.14,10.391,10.391,0,0,0-.481,2.884,8.685,8.685,0,0,0,.385,2.5,11.955,11.955,0,0,0,1.057,2.467,18.263,18.263,0,0,0,2.788-1.954,24.033,24.033,0,0,0,2.787-2.724,17.106,17.106,0,0,0,2.179-3.108A6.375,6.375,0,0,0,335.927,89.125Zm37.423,14.611a7.918,7.918,0,0,1-.961,1.57,7.143,7.143,0,0,1-1.346,1.314,6.476,6.476,0,0,1-1.634.929,5.215,5.215,0,0,1-1.826.32,4.445,4.445,0,0,1-3.652-1.378,6.082,6.082,0,0,1-1.09-3.813V102.1a23.626,23.626,0,0,1-1.314,2.179,10.282,10.282,0,0,1-1.634,1.954,7.79,7.79,0,0,1-2.019,1.41,5.642,5.642,0,0,1-2.5.545,8.133,8.133,0,0,1-3.685-.8A8.04,8.04,0,0,1,349,105.242a9.47,9.47,0,0,1-1.634-3.2,13.5,13.5,0,0,1-.545-3.877,16.957,16.957,0,0,1,3.717-10.509,14.407,14.407,0,0,1,4.261-3.524,11.288,11.288,0,0,1,5.543-1.378,13.418,13.418,0,0,1,2.435.224,9.384,9.384,0,0,1,2.307.737,7.36,7.36,0,0,1,2.018,1.281,6.219,6.219,0,0,1,1.506,1.954l-4.774,2.019a7.6,7.6,0,0,0-.9-1.153,5.32,5.32,0,0,0-1.09-.993,5.406,5.406,0,0,0-1.249-.673,3.927,3.927,0,0,0-1.41-.256,4.716,4.716,0,0,0-2.98,1.025A9.775,9.775,0,0,0,354,89.446a13.314,13.314,0,0,0-1.378,3.2,11.4,11.4,0,0,0-.48,3.076,19.306,19.306,0,0,0,.224,2.756,11.619,11.619,0,0,0,.865,2.851,7.058,7.058,0,0,0,1.6,2.275,3.515,3.515,0,0,0,2.5.929,3.948,3.948,0,0,0,2.051-.513,5.326,5.326,0,0,0,1.474-1.378,8,8,0,0,0,.993-1.954,12.333,12.333,0,0,0,.609-2.275,17.028,17.028,0,0,0,.288-2.275q.1-1.154.1-2.051V91.881l5.831-2.051v13.009a2.3,2.3,0,0,0,.32,1.186,1.088,1.088,0,0,0,.993.513,2.1,2.1,0,0,0,1.442-.577,5.989,5.989,0,0,0,1.057-1.218Zm14.675.064a7.192,7.192,0,0,1-.993,1.57,7.658,7.658,0,0,1-1.314,1.314,5.791,5.791,0,0,1-1.634.9,4.709,4.709,0,0,1-1.794.353,4.5,4.5,0,0,1-3.653-1.378,5.956,5.956,0,0,1-1.121-3.813V63.653l5.9-2.051v41.3a2.493,2.493,0,0,0,.288,1.185,1.075,1.075,0,0,0,1.025.513,2.03,2.03,0,0,0,1.378-.576,6.5,6.5,0,0,0,1.057-1.186Zm15.636,0a7.143,7.143,0,0,1-1.7,2.4,7.051,7.051,0,0,1-1.89,1.218,6.5,6.5,0,0,1-2.179.513,5.451,5.451,0,0,1-2.371-.449,3.948,3.948,0,0,1-1.442-1.185,4.909,4.909,0,0,1-.737-1.666,9.319,9.319,0,0,1-.192-1.891V85.953h-3.4l1.378-3.2h2.019V71.407l5.863-2.051V82.749H405.1l-1.314,3.2h-4.774V102.9a1.922,1.922,0,0,0,.352,1.218,1.189,1.189,0,0,0,.9.48,2.368,2.368,0,0,0,1.218-.416,4.655,4.655,0,0,0,1.314-1.346Zm30.022,0a6.335,6.335,0,0,1-.961,1.57,7.129,7.129,0,0,1-1.346,1.314,5.79,5.79,0,0,1-1.634.9,4.789,4.789,0,0,1-1.826.353,4.5,4.5,0,0,1-3.653-1.378,5.956,5.956,0,0,1-1.121-3.813V89.7a4.919,4.919,0,0,0-.032-.545,1.641,1.641,0,0,0-.16-.577.956.956,0,0,0-.288-.448.691.691,0,0,0-.513-.192,2.247,2.247,0,0,0-1.57.7,6.521,6.521,0,0,0-1.346,1.858,21.051,21.051,0,0,0-1.153,2.659q-.513,1.506-.929,3.14t-.737,3.268q-.288,1.634-.513,3.076t-.352,2.531q-.1,1.09-.1,1.634l-5.9,2.051V63.653l5.9-2.051V96.271a24.822,24.822,0,0,1,.609-2.628,30.187,30.187,0,0,1,2.435-6.088,14.669,14.669,0,0,1,1.858-2.659,9.112,9.112,0,0,1,2.243-1.858,5.208,5.208,0,0,1,2.691-.737,3.312,3.312,0,0,1,2.243.673,3.454,3.454,0,0,1,1.089,1.666,7.141,7.141,0,0,1,.385,2.211q.032,1.217.032,2.339V102.9a2.5,2.5,0,0,0,.288,1.185,1.119,1.119,0,0,0,1.025.513,2.1,2.1,0,0,0,1.442-.576,8.642,8.642,0,0,0,1.058-1.186Z" transform="translate(-184.229 -60.289)" fill="#053559"/>
        <rect id="Retângulo_216-2" data-name="Retângulo 216" width="234" height="3" transform="translate(85 54.54)" fill="#fff"/>
        <rect id="Retângulo_217-2" data-name="Retângulo 217" width="56" height="3" transform="translate(0 54.54)" fill="#fff"/>
      </g>
      <g id="psi-2" data-name="psi" transform="translate(259.998 0)">
        <g id="Grupo_55-2" data-name="Grupo 55">
          <path id="Caminho_470-2" data-name="Caminho 470" d="M79.923,0a6.987,6.987,0,0,0-6.98,6.98v8.87a16.11,16.11,0,0,1-14.431,16V3.313h1.005a1.657,1.657,0,1,0,0-3.313H54.194a1.657,1.657,0,1,0,0,3.313H55.2V31.855a16.11,16.11,0,0,1-14.43-16V6.983A6.988,6.988,0,0,0,33.79,0a1.657,1.657,0,1,0,0,3.313,3.671,3.671,0,0,1,3.667,3.667v8.87A19.426,19.426,0,0,0,55.2,35.181V53.231H51.533a1.657,1.657,0,1,0,0,3.313H62.179a1.657,1.657,0,0,0,0-3.313H58.513V35.181A19.426,19.426,0,0,0,76.256,15.853V6.983a3.671,3.671,0,0,1,3.667-3.667,1.657,1.657,0,0,0,0-3.313Z" transform="translate(-32.133)" fill="#fff"/>
        </g>
      </g>
    </g>
    <g id="Grupo_60" data-name="Grupo 60" transform="translate(569.994 34.034)">
      <path id="Caminho_478" data-name="Caminho 478" d="M-1278.058-1824.809s6.251-.417,5.918,7.418-1.5,21.339,16,24.506" transform="translate(1278.058 1824.813)" fill="none" stroke="#fff" stroke-linecap="round" stroke-width="5"/>
      <path id="Caminho_479" data-name="Caminho 479" d="M-1256.136-1824.809s-6.251-.417-5.918,7.418,1.5,21.339-16,24.506" transform="translate(1303.577 1824.813)" fill="none" stroke="#fff" stroke-linecap="round" stroke-width="5"/>
      <path id="Caminho_480" data-name="Caminho 480" d="M-1233.975-1824.813h7.085" transform="translate(1254.063 1824.813)" fill="none" stroke="#fff" stroke-linecap="round" stroke-width="5"/>
      <path id="Caminho_481" data-name="Caminho 481" d="M-1226.2-1824.813v53.851" transform="translate(1249.832 1824.813)" fill="none" stroke="#fff" stroke-width="5"/>
      <path id="Caminho_482" data-name="Caminho 482" d="M-1238.365-1706.639h11.336" transform="translate(1256.453 1760.49)" fill="none" stroke="#fff" stroke-linecap="round" stroke-width="5"/>
    </g>
  </g>
</svg>
