<svg xmlns="http://www.w3.org/2000/svg" width="209.04" height="82.469" viewBox="0 0 209.04 82.469">
  <g id="Grupo_172" data-name="Grupo 172" transform="translate(-300 -22.408)">
    <path id="Caminho_488" data-name="Caminho 488" d="M418-1349.172v18.828h9.285v-8.253h7.634c8.666,0,10.42-.516,13.721-3.92,3.353-3.4,4.178-5.519,4.178-10.523,0-3.766-.206-4.746-1.393-7.015a17.316,17.316,0,0,0-3.611-4.539c-3.456-2.992-5.726-3.4-18.57-3.4H418Zm22.954-8.924c3.095,1.393,3.817,6.19,1.341,8.717l-1.5,1.5H427.285v-10.833h6.19C437.137-1358.715,440.181-1358.457,440.954-1358.1Z" transform="translate(-28.735 1390.408)" fill="#053559"/>
    <path id="Caminho_489" data-name="Caminho 489" d="M508.379-1367.226a16.463,16.463,0,0,0-7.583,5.21,76.892,76.892,0,0,0-4.694,10.626c-4.178,11.09-4.694,11.761-9.594,11.761H483v9.44l4.539-.258c5.107-.309,7.737-1.341,10.678-4.281,2.321-2.321,3.095-3.972,6.448-13.154,1.857-5.055,3.2-8,4.178-9.027,1.393-1.393,1.857-1.547,5.622-1.7l4.127-.206V-1368l-3.972.052A24.966,24.966,0,0,0,508.379-1367.226Z" transform="translate(-60.207 1390.408)" fill="#053559"/>
    <path id="Caminho_490" data-name="Caminho 490" d="M558-1367.794c0,.1,2.476,5.829,5.468,12.741l5.468,12.535-1.238.928a12.254,12.254,0,0,1-7.222,1.96H558v9.388l4.539-.206c6.757-.309,11.5-2.94,14.8-8.15,1.393-2.166,15.733-28.783,15.733-29.144a26.1,26.1,0,0,0-5.261-.258l-5.313.052-3.817,7.17c-2.063,3.972-3.92,7.222-4.127,7.222a60.807,60.807,0,0,1-3.4-7.222L568.059-1368h-5A32.757,32.757,0,0,0,558-1367.794Z" transform="translate(-96.519 1390.408)" fill="#053559"/>
    <path id="Caminho_491" data-name="Caminho 491" d="M250.856-1363.762a9.027,9.027,0,0,0-5.261,5.932c-.825,2.424-.877,61.848-.052,64.788a12.306,12.306,0,0,0,6.912,6.912c2.682.722,61.59.774,64.272.052a12.772,12.772,0,0,0,3.972-2.373c3.817-3.25,3.766-2.889,3.611-38.171l-.155-30.9-1.29-2.218a10.092,10.092,0,0,0-3.611-3.611l-2.321-1.393-31.723-.155-31.723-.1Zm43.278,8.1c3.559,1.341,7.428,4.642,8.511,7.17a35.679,35.679,0,0,1,2.166,9.027,14.957,14.957,0,0,0,3.508,9.336c1.909,2.321,3.2,4.642,3.2,5.932a7.517,7.517,0,0,1-1.754,2.27l-1.754,1.754.258,4.849c.361,5.623,0,6.6-2.992,8.1-2.631,1.341-10.007,2.012-11.761,1.032-1.754-.928-.825-1.444,4.281-2.373,3.095-.567,4.952-1.238,5.88-2.012,1.341-1.135,1.393-1.393,1.29-5.932-.1-4.023,0-5,.877-6.19,1.5-2.063,1.29-3.3-.825-5-1.6-1.29-1.857-1.805-2.063-4.281-.774-8.666-3.147-15.114-6.809-18.364-2.27-2.012-6.4-3.3-10.471-3.3a49,49,0,0,0-14.237,2.94c-2.218.877-2.631.567-1.5-1.135,1.7-2.579,5.519-4.23,11.916-5.107A32.4,32.4,0,0,1,294.134-1355.663Zm-7.634,8.46c4.488,2.631,6.293,7.17,4.694,11.967-3.3,10.007-20.169,11.142-24.914,1.7-1.857-3.611-1.29-9.285,1.29-12.225l1.186-1.444-.258,1.547a48.339,48.339,0,0,0-.619,5.468c-.31,3.817-.31,3.92,1.238,5.726a17.155,17.155,0,0,0,10.987,4.746c5.365.052,7.428-2.167,7.273-7.892-.1-3.869-1.5-7.222-3.559-8.563-1.548-1.032-4.642-.825-6.654.516-5.416,3.559-3.456,11.09,2.94,11.09,3.456,0,5.158-2.424,3.972-5.726-.671-1.96-1.909-1.908-4.591.052-2.321,1.651-3.043,1.6-3.043-.258,0-1.96,2.424-3.508,4.849-3.146,2.424.413,4.849,1.754,5.21,2.94.877,2.682-2.166,8.356-4.694,8.872-3.508.671-8.614-2.424-9.955-5.984a10.2,10.2,0,0,1,.155-7.015,8.821,8.821,0,0,1,4.9-3.714C279.329-1349.319,284.023-1348.7,286.5-1347.2Zm-25.791,12.328c-.516,8.15.155,10.11,4.9,15.475a27.016,27.016,0,0,1,4.023,5.416,32.122,32.122,0,0,1,.31,5.984c-.052,5.055-1.393,9.9-3.3,11.812-.928.98-1.032.98-1.341.1a19.535,19.535,0,0,1,.258-5.158c.825-5.623.258-7.841-3.817-15.269-.52-.953-.985-1.836-1.465-2.793-2.482-4.945-3.119-7.9-2.764-12.115.309-3.559,2.218-9.336,3.095-9.336C260.914-1340.756,260.966-1338.641,260.708-1334.876Z" transform="translate(55.051 1388.955)" fill="#053559"/>
    <path id="Caminho_492" data-name="Caminho 492" d="M415-1256.493v16.506h2.579v-7.892c0-7.17.1-8.1,1.186-10.162,1.6-3.146,3.353-4.281,6.964-4.539,3.25-.258,5.261.464,7.067,2.476.928,1.032,1.083,2.063,1.29,10.523.258,9.285.258,9.336,1.444,9.491l1.238.206-.206-9.749c-.155-9.078-.206-9.8-1.29-11.3-1.5-2.115-4.333-3.456-7.944-3.714a10.834,10.834,0,0,0-8.2,2.321l-1.547,1.29V-1273H415Z" transform="translate(-27.283 1344.412)" fill="#053559"/>
    <path id="Caminho_493" data-name="Caminho 493" d="M570-1256.442v16.506l1.186-.155,1.135-.155.155-16.4.1-16.352H570Z" transform="translate(-102.33 1344.412)" fill="#053559"/>
    <path id="Caminho_494" data-name="Caminho 494" d="M608.1-1256.648l.155,16.4,1.186.155c1.135.155,1.135.155,1.135-7.737,0-7.222.1-8.15,1.186-10.213,1.6-3.146,3.353-4.281,6.964-4.539,3.25-.258,5.261.464,7.067,2.476.928,1.032,1.083,2.063,1.289,10.523.258,9.285.258,9.336,1.444,9.491l1.238.206-.206-9.749c-.155-9.078-.206-9.8-1.29-11.3-3.095-4.281-11.812-5.055-16.145-1.444l-1.547,1.341V-1273H608Z" transform="translate(-120.728 1344.412)" fill="#053559"/>
    <path id="Caminho_495" data-name="Caminho 495" d="M584.643-1263.389v3.611h-2.321c-1.96,0-2.321.155-2.321,1.032s.361,1.032,2.321,1.032h2.321v20.685l1.186-.155c1.135-.155,1.135-.206,1.289-10.368l.1-10.162h2.321c1.96,0,2.321-.155,2.321-1.032s-.361-1.032-2.321-1.032h-2.321v-3.611c0-3.508-.052-3.611-1.29-3.611S584.643-1266.9,584.643-1263.389Z" transform="translate(-107.171 1341.507)" fill="#053559"/>
    <path id="Caminho_496" data-name="Caminho 496" d="M469.466-1254.739c-3.043,1.393-3.972,2.373-5.365,5.468-1.29,2.889-1.444,8.46-.258,11.245,1.909,4.694,6.5,7.17,12.38,6.654,5.21-.413,8.821-2.734,10.317-6.706.619-1.651-2.012-1.032-3.147.774-1.805,2.785-3.508,3.714-7.479,3.92-5.107.31-7.737-1.032-9.543-4.8-2.373-4.8-2.734-4.642,10.265-4.8l11.3-.1-.31-2.579c-.309-2.734-1.754-5.932-3.3-7.325C480.917-1256.08,474.057-1256.906,469.466-1254.739Zm10.213,1.548a9.951,9.951,0,0,1,3.095,2.321c1.5,1.805,2.631,5.21,2.012,5.829-.258.258-4.694.361-9.956.309l-9.491-.155.155-1.547a9.7,9.7,0,0,1,4.591-6.4A13.649,13.649,0,0,1,479.679-1253.191Z" transform="translate(-50.541 1336.158)" fill="#053559"/>
    <path id="Caminho_497" data-name="Caminho 497" d="M520.254-1255.02c-4.591,2.115-6.6,5.571-6.654,11.4,0,4.281.774,6.293,3.456,9.13,4.075,4.333,13.1,4.23,17.177-.206l1.238-1.341v2.167c0,1.908.1,2.115,1.29,2.115h1.29V-1256h-1.29c-1.186,0-1.29.206-1.29,2.115v2.115l-1.651-1.444a17.186,17.186,0,0,0-3.353-2.115C528.043-1256.309,522.73-1256.155,520.254-1255.02Zm11.245,2.631c2.424,1.651,3.611,4.075,3.869,8.1.413,6.087-3.147,10.42-8.872,10.884-3.508.258-5.88-.516-7.892-2.631a10.171,10.171,0,0,1-2.734-7.583c0-4.333,1.5-7.221,4.9-9.388C523.091-1254.453,528.92-1254.143,531.5-1252.389Z" transform="translate(-75.022 1336.181)" fill="#053559"/>
  </g>
</svg>
